<svg width="136" height="163" viewBox="0 0 136 163" fill="none" xmlns="http://www.w3.org/2000/svg">
<g clip-path="url(#clip0)">
<path d="M42.7539 102.746C42.7539 102.746 25.5562 110.009 14.8688 100.945C4.18133 91.8802 1.01863 81.2072 7.9396 65.7948C7.9396 65.7948 -11.6034 47.4895 10.6299 31.1497C10.6299 31.1497 10.1083 7.17342 37.5087 9.90629C37.5087 9.90629 47.8265 -8.14873 70.6102 4.5062C70.6102 4.5062 101.896 -6.92591 105.655 23.3081C105.655 23.3081 123.9 21.0594 133.864 38.2855C133.864 38.2855 139.532 54.3627 132.385 64.7238C132.385 64.7238 141.299 92.1675 113.491 105.064C85.6844 117.962 54.8214 84.9578 54.8214 84.9578L42.7539 102.746Z" fill="#9FBCE8"/>
<path d="M45.5223 143.049C45.5223 143.049 44.5324 100.562 42.7539 92.0643C42.7539 92.0643 52.2461 91.4734 56.2015 82.5813C56.2015 82.5813 66.4906 93.4512 79.5439 83.5702C79.5439 83.5702 82.0576 93.1066 93.164 92.29L90.5517 146.016L90.4983 147.247C90.4983 147.247 86.0418 150.374 79.0345 150.961L75.9828 146.209C75.9828 146.209 74.9929 150.558 73.6087 151.35C73.6087 151.35 62.5187 152.93 53.236 147.793L51.6546 143.87L48.4878 145.45C48.4878 145.45 45.5223 144.834 45.5223 143.049Z" fill="#FB9AA0"/>
<path d="M61.6396 107.05C61.6396 109.635 60.6333 111.867 59.1752 112.893C57.9745 112.375 56.6229 112.327 55.3882 112.758C54.0368 111.679 53.1127 109.528 53.1127 107.05C53.1127 103.488 55.0185 100.603 57.372 100.603C59.7256 100.603 61.6396 103.488 61.6396 107.05Z" fill="white"/>
<path d="M82.2958 107.05C82.2958 109.582 81.3306 111.769 79.9299 112.823C78.7097 112.347 77.3549 112.347 76.1347 112.823C74.7382 111.769 73.7729 109.582 73.7729 107.05C73.7729 103.488 75.6829 100.603 78.0323 100.603C80.3818 100.603 82.2958 103.488 82.2958 107.05Z" fill="white"/>
<path d="M57.253 110.661C58.8205 110.661 60.0912 109.044 60.0912 107.05C60.0912 105.056 58.8205 103.439 57.253 103.439C55.6855 103.439 54.4148 105.056 54.4148 107.05C54.4148 109.044 55.6855 110.661 57.253 110.661Z" fill="#161616"/>
<path d="M77.905 110.661C79.4725 110.661 80.7432 109.044 80.7432 107.05C80.7432 105.056 79.4725 103.439 77.905 103.439C76.3375 103.439 75.0668 105.056 75.0668 107.05C75.0668 109.044 76.3375 110.661 77.905 110.661Z" fill="#161616"/>
<path d="M73.2595 122.655C73.2595 122.869 70.9471 129.491 68.0924 129.491C65.2378 129.491 62.9294 122.869 62.9294 122.655C62.9294 122.442 65.2419 122.269 68.0924 122.269C70.943 122.269 73.2595 122.442 73.2595 122.655Z" fill="white"/>
<path d="M91.0486 120.924C91.7427 118.741 91.2498 116.496 91.41 114.284C91.4799 113.336 91.3033 112.36 91.7879 111.469C96.8729 113.024 101.391 115.446 104.521 119.906C105.067 120.681 105.523 120.374 106.164 120.128C106.952 119.828 107.618 118.896 108.628 119.516C108.628 119.795 108.628 120.078 108.628 120.357C108.312 120.846 107.954 121.306 107.556 121.732C106.575 122.622 106.353 123.546 106.891 124.818C107.252 125.788 107.464 126.808 107.519 127.842C107.749 130.378 106.398 132.118 104.09 132.397C101.781 132.676 99.9288 131.166 99.6084 128.622C99.1155 124.756 95.3162 121.01 91.4716 120.628C91.3649 120.612 91.2006 120.821 91.0486 120.924Z" fill="#FB9AA0"/>
<path d="M44.5242 111.477C44.9349 111.798 44.8897 112.261 44.9103 112.709C45.0307 115.318 45.1485 117.931 45.2635 120.546C41.1972 121.092 36.5722 124.649 36.4203 129.069C36.3422 131.35 34.2187 132.713 31.9925 132.388C29.7663 132.064 28.3903 130.279 28.6203 127.916C28.9794 124.396 30.4528 121.083 32.8263 118.457C35.9602 114.863 39.9732 112.717 44.5242 111.477Z" fill="#FB9AA0"/>
<path d="M59.471 144.691L61.4672 145.101L62.3216 145.392C63.6318 145.688 64.8969 146.213 66.2647 146.213C65.6444 150.189 65.628 154.21 65.5089 158.215C65.4596 159.857 64.8353 160.411 63.3689 160.739C60.654 161.355 57.9718 162.11 55.302 162.889C54.2382 163.197 53.7289 162.815 53.3756 161.892C53.0298 161.08 52.9144 160.189 53.0419 159.316C53.1694 158.443 53.535 157.622 54.0986 156.943C54.6116 156.265 55.3012 155.741 56.0922 155.428C56.8831 155.114 57.745 155.024 58.5838 155.167C59.1895 155.279 59.7887 155.424 60.3788 155.602C60.0666 151.876 59.7832 148.273 59.471 144.691Z" fill="#FB9AA0"/>
<path d="M79.9833 144.691L77.983 145.101L77.1328 145.392C75.8225 145.688 74.5575 146.213 73.1897 146.213C73.8099 150.189 73.8263 154.21 73.9455 158.215C73.9947 159.857 74.6191 160.411 76.0854 160.739C78.8004 161.355 81.4825 162.11 84.1523 162.889C85.2161 163.197 85.7255 162.815 86.0746 161.892C86.4223 161.081 86.5392 160.19 86.4124 159.317C86.2856 158.443 85.92 157.622 85.3558 156.943C84.8424 156.266 84.1528 155.742 83.3619 155.428C82.5711 155.115 81.7093 155.024 80.8705 155.167C80.2689 155.281 79.6738 155.428 79.0879 155.606C79.3836 151.876 79.6835 148.273 79.9833 144.691Z" fill="#FB9AA0"/>
<path d="M108.661 120.357C108.661 120.078 108.661 119.795 108.661 119.516C109.803 119.286 109.672 118.33 109.799 117.526C110.284 114.383 111.98 113.234 115.138 113.697C116.597 113.911 116.506 114.518 115.919 115.478C114.991 116.997 113.713 118.146 111.906 118.24C110.304 118.326 109.265 118.921 108.661 120.357Z" fill="#9FBCE8"/>
<path opacity="0.8" d="M116.757 78.5641C116.987 80.9564 116.034 83.2379 115.114 85.5399C114.929 85.9995 114.613 86.6642 114.038 86.4549C113.302 86.18 113.816 85.5809 114.013 85.1583C116.868 79.0975 116.022 73.4799 112.037 68.2112C110.362 65.9994 108.004 64.8012 105.564 63.6974C105.116 63.4963 104.299 63.4963 104.5 62.8521C104.73 62.1053 105.445 62.5074 105.975 62.6839C111.754 64.6412 117.135 70.9522 116.757 78.5641Z" fill="white"/>
<path opacity="0.8" d="M43.6904 62.7987C43.6083 63.722 43.1729 63.5291 42.7334 63.3117C41.2219 62.5689 39.7473 61.7852 38.0838 61.3707C34.7282 60.5329 31.1875 60.8537 28.0375 62.2812C24.8875 63.7086 22.3136 66.1586 20.7342 69.2329C20.4179 69.8443 20.2824 71.1656 19.387 70.7347C18.5655 70.349 19.387 69.3396 19.7114 68.683C23.8188 60.587 34.3297 57.3412 42.22 61.7072C42.7355 62.0356 43.2269 62.4004 43.6904 62.7987Z" fill="white"/>
<path opacity="0.8" d="M80.0573 36.6393C84.7932 35.6258 89.1963 36.3685 93.2216 39.126C93.7514 39.4912 94.3018 39.8318 94.844 40.1847C96.0146 41.7235 97.214 43.2458 98.3312 44.8215C98.6228 45.2319 99.1773 45.9131 98.4174 46.3152C97.7767 46.6599 97.5631 45.9048 97.3536 45.4945C93.1846 37.0086 81.9344 35.1498 75.1737 39.8892C74.8286 40.1313 74.3891 40.8987 73.9209 40.1806C73.5841 39.6594 74.1427 39.2081 74.5699 38.9496C76.2498 37.8375 78.016 36.902 80.0573 36.6393Z" fill="white"/>
<path opacity="0.8" d="M46.849 21.0587C45.9988 21.6537 45.3539 21.4691 44.7337 21.3418C42.7547 20.9629 40.7201 20.9794 38.7474 21.3904C36.7748 21.8015 34.9032 22.5989 33.2408 23.7366C31.5784 24.8743 30.1581 26.3298 29.0619 28.0191C27.9657 29.7083 27.2154 31.5977 26.8542 33.5782C26.7105 34.3538 26.8542 35.9049 25.8602 35.6915C24.7595 35.4617 25.5768 34.165 25.7329 33.3484C27.3348 24.998 34.8144 19.6841 42.6636 19.9467C44.0355 19.9754 45.473 20.0534 46.849 21.0587Z" fill="white"/>
</g>
<defs>
<clipPath id="clip0">
<rect width="136" height="163" fill="white"/>
</clipPath>
</defs>
</svg>
